<?xml version="1.0" encoding="UTF-8" standalone="no"?><!DOCTYPE svg PUBLIC "-//W3C//DTD SVG 1.1//EN" "http://www.w3.org/Graphics/SVG/1.1/DTD/svg11.dtd"><!-- Generated by graphviz version 2.40.1 (20161225.0304)
 --><!-- Title: g Pages: 1 --><svg xmlns="http://www.w3.org/2000/svg" xmlns:xlink="http://www.w3.org/1999/xlink" width="987pt" height="768pt" viewBox="0.00 0.00 986.90 768.40">
    <g id="graph0" class="graph" transform="scale(1 1) rotate(0) translate(4 764.4)">
        <title>g</title>
        <polygon fill="#ffffff" stroke="transparent" points="-4,4 -4,-764.4 982.8992,-764.4 982.8992,4 -4,4"/>
        <!-- VssNiP -->
        <g id="node1" class="node">
            <title>VssNiP</title>
            <polygon fill="none" stroke="#000000" points="617.6736,-447.7 617.6736,-502.1 978.8992,-502.1 978.8992,-447.7 617.6736,-447.7"/>
            <text text-anchor="middle" x="798.2864" y="-483.7" font-family="Times,serif" font-size="16.00" fill="#000000">HadoopWrite</text>
            <polyline fill="none" stroke="#000000" points="617.6736,-474.9 978.8992,-474.9 "/>
            <text text-anchor="middle" x="798.2864" y="-456.5" font-family="Times,serif" font-size="16.00" fill="#000000">hdfs://localhost:9000/charactersWithLocation.parquet</text>
        </g>
        <!-- VbbfwD -->
        <g id="node2" class="node">
            <title>VbbfwD</title>
            <polygon fill="none" stroke="#000000" points="399.4912,-311.7 399.4912,-502.1 581.6736,-502.1 581.6736,-311.7 399.4912,-311.7"/>
            <text text-anchor="middle" x="490.5824" y="-483.7" font-family="Times,serif" font-size="16.00" fill="#000000">Project</text>
            <polyline fill="none" stroke="#000000" points="399.4912,-474.9 581.6736,-474.9 "/>
            <text text-anchor="middle" x="490.5824" y="-456.5" font-family="Times,serif" font-size="16.00" fill="#000000">charId:LongType</text>
            <polyline fill="none" stroke="#000000" points="399.4912,-447.7 581.6736,-447.7 "/>
            <text text-anchor="middle" x="490.5824" y="-429.3" font-family="Times,serif" font-size="16.00" fill="#000000">charName:StringType</text>
            <polyline fill="none" stroke="#000000" points="399.4912,-420.5 581.6736,-420.5 "/>
            <text text-anchor="middle" x="490.5824" y="-402.1" font-family="Times,serif" font-size="16.00" fill="#000000">charLocation:StringType</text>
            <polyline fill="none" stroke="#000000" points="399.4912,-393.3 581.6736,-393.3 "/>
            <text text-anchor="middle" x="490.5824" y="-374.9" font-family="Times,serif" font-size="16.00" fill="#000000">locationId:LongType</text>
            <polyline fill="none" stroke="#000000" points="399.4912,-366.1 581.6736,-366.1 "/>
            <text text-anchor="middle" x="490.5824" y="-347.7" font-family="Times,serif" font-size="16.00" fill="#000000">locationName:StringType</text>
            <polyline fill="none" stroke="#000000" points="399.4912,-338.9 581.6736,-338.9 "/>
            <text text-anchor="middle" x="490.5824" y="-320.5" font-family="Times,serif" font-size="16.00" fill="#000000">locationUrl:StringType</text>
        </g>
        <!-- VbbfwD&#45;&gt;VssNiP -->
        <g id="jo" class="edge">
            <title>VbbfwD:f0-&gt;VssNiP:f0</title>
            <path fill="none" stroke="#000000" d="M581.5824,-488.9C593.6128,-488.9 598.8761,-488.9 607.5229,-488.9"/>
            <polygon fill="#000000" stroke="#000000" points="607.6736,-492.4001 617.6736,-488.9 607.6736,-485.4001 607.6736,-492.4001"/>
        </g>
        <!-- zVrkPa -->
        <g id="node3" class="node">
            <title>zVrkPa</title>
            <polygon fill="none" stroke="#000000" points="287.0496,-447.7 287.0496,-502.1 363.4912,-502.1 363.4912,-447.7 287.0496,-447.7"/>
            <text text-anchor="middle" x="325.2704" y="-483.7" font-family="Times,serif" font-size="16.00" fill="#000000">Join</text>
            <polyline fill="none" stroke="#000000" points="287.0496,-474.9 363.4912,-474.9 "/>
            <text text-anchor="middle" x="325.2704" y="-456.5" font-family="Times,serif" font-size="16.00" fill="#000000">condition</text>
        </g>
        <!-- zVrkPa&#45;&gt;VbbfwD -->
        <g id="VbbfwD" class="edge">
            <title>zVrkPa:f0-&gt;VbbfwD:f0</title>
            <path fill="none" stroke="#000000" d="M363.2704,-488.9C375.3744,-488.9 380.6699,-488.9 389.3697,-488.9"/>
            <polygon fill="#000000" stroke="#000000" points="389.5824,-492.4001 399.5824,-488.9 389.5824,-485.4001 389.5824,-492.4001"/>
        </g>
        <!-- rsZOKi -->
        <g id="node4" class="node">
            <title>rsZOKi</title>
            <polygon fill="none" stroke="#000000" points="0,-263.9 0,-759.9 251.0496,-759.9 251.0496,-263.9 0,-263.9"/>
            <text text-anchor="middle" x="125.5248" y="-741.5" font-family="Times,serif" font-size="16.00" fill="#000000">HadoopRead</text>
            <polyline fill="none" stroke="#000000" points="0,-732.7 251.0496,-732.7 "/>
            <text text-anchor="middle" x="125.5248" y="-714.3" font-family="Times,serif" font-size="16.00" fill="#000000">hdfs://localhost:9000/characters.json</text>
            <polyline fill="none" stroke="#000000" points="0,-705.5 251.0496,-705.5 "/>
            <text text-anchor="middle" x="125.5248" y="-687.1" font-family="Times,serif" font-size="16.00" fill="#000000">created:string</text>
            <polyline fill="none" stroke="#000000" points="0,-678.3 251.0496,-678.3 "/>
            <text text-anchor="middle" x="125.5248" y="-659.9" font-family="Times,serif" font-size="16.00" fill="#000000">episode:[string]</text>
            <polyline fill="none" stroke="#000000" points="0,-651.1 251.0496,-651.1 "/>
            <text text-anchor="middle" x="125.5248" y="-632.7" font-family="Times,serif" font-size="16.00" fill="#000000">gender:string</text>
            <polyline fill="none" stroke="#000000" points="0,-623.9 251.0496,-623.9 "/>
            <text text-anchor="middle" x="125.5248" y="-605.5" font-family="Times,serif" font-size="16.00" fill="#000000">id:long</text>
            <polyline fill="none" stroke="#000000" points="0,-596.7 251.0496,-596.7 "/>
            <text text-anchor="middle" x="125.5248" y="-578.3" font-family="Times,serif" font-size="16.00" fill="#000000">image:string</text>
            <polyline fill="none" stroke="#000000" points="0,-569.5 251.0496,-569.5 "/>
            <text text-anchor="middle" x="125.5248" y="-551.1" font-family="Times,serif" font-size="16.00" fill="#000000">location:{</text>
            <text text-anchor="middle" x="125.5248" y="-531.9" font-family="Times,serif" font-size="16.00" fill="#000000">name:string</text>
            <text text-anchor="middle" x="125.5248" y="-512.7" font-family="Times,serif" font-size="16.00" fill="#000000">url:string</text>
            <text text-anchor="middle" x="125.5248" y="-493.5" font-family="Times,serif" font-size="16.00" fill="#000000">}</text>
            <polyline fill="none" stroke="#000000" points="0,-484.7 251.0496,-484.7 "/>
            <text text-anchor="middle" x="125.5248" y="-466.3" font-family="Times,serif" font-size="16.00" fill="#000000">name:string</text>
            <polyline fill="none" stroke="#000000" points="0,-457.5 251.0496,-457.5 "/>
            <text text-anchor="middle" x="125.5248" y="-439.1" font-family="Times,serif" font-size="16.00" fill="#000000">origin:{</text>
            <text text-anchor="middle" x="125.5248" y="-419.9" font-family="Times,serif" font-size="16.00" fill="#000000">name:string</text>
            <text text-anchor="middle" x="125.5248" y="-400.7" font-family="Times,serif" font-size="16.00" fill="#000000">url:string</text>
            <text text-anchor="middle" x="125.5248" y="-381.5" font-family="Times,serif" font-size="16.00" fill="#000000">}</text>
            <polyline fill="none" stroke="#000000" points="0,-372.7 251.0496,-372.7 "/>
            <text text-anchor="middle" x="125.5248" y="-354.3" font-family="Times,serif" font-size="16.00" fill="#000000">species:string</text>
            <polyline fill="none" stroke="#000000" points="0,-345.5 251.0496,-345.5 "/>
            <text text-anchor="middle" x="125.5248" y="-327.1" font-family="Times,serif" font-size="16.00" fill="#000000">status:string</text>
            <polyline fill="none" stroke="#000000" points="0,-318.3 251.0496,-318.3 "/>
            <text text-anchor="middle" x="125.5248" y="-299.9" font-family="Times,serif" font-size="16.00" fill="#000000">type:string</text>
            <polyline fill="none" stroke="#000000" points="0,-291.1 251.0496,-291.1 "/>
            <text text-anchor="middle" x="125.5248" y="-272.7" font-family="Times,serif" font-size="16.00" fill="#000000">url:string</text>
        </g>
        <!-- rsZOKi&#45;&gt;zVrkPa -->
        <g id="zVrkPa" class="edge">
            <title>rsZOKi:f0-&gt;zVrkPa:f0</title>
            <path fill="none" stroke="#000000" d="M251.0496,-745.9C362.6833,-745.9 184.1325,-505.1975 277.0629,-489.6835"/>
            <polygon fill="#000000" stroke="#000000" points="277.5676,-493.1552 287.2704,-488.9 277.0318,-486.1757 277.5676,-493.1552"/>
        </g>
        <!-- gJpKC3 -->
        <g id="node5" class="node">
            <title>gJpKC3</title>
            <polygon fill="none" stroke="#000000" points="3.5336,-.5 3.5336,-245.3 247.516,-245.3 247.516,-.5 3.5336,-.5"/>
            <text text-anchor="middle" x="125.5248" y="-226.9" font-family="Times,serif" font-size="16.00" fill="#000000">HadoopRead</text>
            <polyline fill="none" stroke="#000000" points="3.5336,-218.1 247.516,-218.1 "/>
            <text text-anchor="middle" x="125.5248" y="-199.7" font-family="Times,serif" font-size="16.00" fill="#000000">hdfs://localhost:9000/locations.json</text>
            <polyline fill="none" stroke="#000000" points="3.5336,-190.9 247.516,-190.9 "/>
            <text text-anchor="middle" x="125.5248" y="-172.5" font-family="Times,serif" font-size="16.00" fill="#000000">created:string</text>
            <polyline fill="none" stroke="#000000" points="3.5336,-163.7 247.516,-163.7 "/>
            <text text-anchor="middle" x="125.5248" y="-145.3" font-family="Times,serif" font-size="16.00" fill="#000000">dimension:string</text>
            <polyline fill="none" stroke="#000000" points="3.5336,-136.5 247.516,-136.5 "/>
            <text text-anchor="middle" x="125.5248" y="-118.1" font-family="Times,serif" font-size="16.00" fill="#000000">id:long</text>
            <polyline fill="none" stroke="#000000" points="3.5336,-109.3 247.516,-109.3 "/>
            <text text-anchor="middle" x="125.5248" y="-90.9" font-family="Times,serif" font-size="16.00" fill="#000000">name:string</text>
            <polyline fill="none" stroke="#000000" points="3.5336,-82.1 247.516,-82.1 "/>
            <text text-anchor="middle" x="125.5248" y="-63.7" font-family="Times,serif" font-size="16.00" fill="#000000">residents:[string]</text>
            <polyline fill="none" stroke="#000000" points="3.5336,-54.9 247.516,-54.9 "/>
            <text text-anchor="middle" x="125.5248" y="-36.5" font-family="Times,serif" font-size="16.00" fill="#000000">type:string</text>
            <polyline fill="none" stroke="#000000" points="3.5336,-27.7 247.516,-27.7 "/>
            <text text-anchor="middle" x="125.5248" y="-9.3" font-family="Times,serif" font-size="16.00" fill="#000000">url:string</text>
        </g>
        <!-- gJpKC3&#45;&gt;zVrkPa -->
        <g id="zVrkPa" class="edge">
            <title>gJpKC3:f0-&gt;zVrkPa:f0</title>
            <path fill="none" stroke="#000000" d="M247.5248,-231.9C301.4772,-231.9 238.9629,-455.9005 277.447,-485.6506"/>
            <polygon fill="#000000" stroke="#000000" points="276.6771,-489.0824 287.2704,-488.9 278.8755,-482.4365 276.6771,-489.0824"/>
        </g>
    </g>
</svg>